<?xml version="1.0" encoding="UTF-8"?>
<svg id="Layer_1" data-name="Layer 1" xmlns="http://www.w3.org/2000/svg" xmlns:xlink="http://www.w3.org/1999/xlink" viewBox="0 0 180 212.15">
  <defs>
    <style>
      .cls-1 {
        fill: #fff;
      }

      .cls-2 {
        fill: #3a576c;
      }

      .cls-3 {
        fill: #ed2224;
      }

      .cls-4 {
        fill: url(#New_Pattern_2);
      }

      .cls-5 {
        fill: none;
      }

      .cls-6 {
        fill: #010101;
      }
    </style>
    <pattern id="New_Pattern_2" data-name="New Pattern 2" x="0" y="0" width="232" height="156" patternTransform="translate(-3946.52 -4126.96) scale(.53)" patternUnits="userSpaceOnUse" viewBox="0 0 232 156">
      <g>
        <rect class="cls-5" width="232" height="156"/>
        <g>
          <rect class="cls-1" x="0" y="143" width="232" height="13"/>
          <rect class="cls-3" x="0" y="130" width="232" height="13"/>
          <rect class="cls-1" x="0" y="117" width="232" height="13"/>
        </g>
        <g>
          <rect class="cls-3" x="0" y="104" width="232" height="13"/>
          <rect class="cls-1" x="0" y="91" width="232" height="13"/>
          <rect class="cls-3" x="0" y="78" width="232" height="13"/>
          <rect class="cls-1" x="0" y="65" width="232" height="13"/>
          <rect class="cls-3" x="0" y="52" width="232" height="13"/>
          <rect class="cls-1" x="0" y="39" width="232" height="13"/>
        </g>
        <g>
          <rect class="cls-3" x="0" y="26" width="232" height="13"/>
          <rect class="cls-1" x="0" y="13" width="232" height="13"/>
          <rect class="cls-3" x="0" y="0" width="232" height="13"/>
        </g>
      </g>
    </pattern>
  </defs>
  <g>
    <path id="body" class="cls-1" d="M154.76,196.69v14.79h-20.07v-14.79H45.42v14.79H25.35v-64.91l-11.86,8.38L1.9,138.56l23.45-16.57,25.62-16.42h78.7l25.09,16.55,23.45,16.57-11.58,16.39-11.86-8.38v49.99Z"/>
    <path class="cls-6" d="M155.55,212.27h-21.66v-14.79H46.21v14.79H24.56v-64.17l-11.26,7.96L.8,138.37l24.09-17.03,25.84-16.56h79.17l25.29,16.68,24.11,17.04-12.5,17.68-11.26-7.96v64.04Zm-20.07-1.58h18.49v-65.51l12.47,8.81,10.67-15.1-22.8-16.11-24.87-16.4H51.2l-25.42,16.29L3.01,138.75l10.67,15.1,12.47-8.81v65.65h18.49v-14.79h90.85v14.79Z"/>
  </g>
  <g id="_4" data-name="4">
    <g>
      <polygon id="_4-2" data-name="4" class="cls-2" points="25.46 200.24 45.53 200.24 45.53 197.17 134.79 197.17 134.79 200.24 154.86 200.24 154.86 175.7 25.46 174.59 25.46 200.24"/>
      <path class="cls-6" d="M155.66,201.03h-21.66v-3.07H46.32v3.07H24.67v-27.24l130.99,1.12v26.12Zm-20.07-1.58h18.49v-22.96l-127.82-1.1v24.06h18.49v-3.07h90.85v3.07Z"/>
    </g>
    <g>
      <polygon id="_4-3" data-name="4" class="cls-4" points="13.29 130.59 23.76 147.77 25.47 146.57 25.47 175.29 154.87 176.34 154.87 146.7 157.37 148.46 168.93 132.05 144.05 105.57 39.46 105.57 13.29 130.59"/>
      <path class="cls-6" d="M155.67,177.14h-.8s-130.19-1.06-130.19-1.06v-27.98l-1.15,.81-11.24-18.45,26.86-25.68h105.24l25.56,27.2-12.39,17.58-1.89-1.34v28.91Zm-129.41-2.64l127.82,1.04v-30.38l3.1,2.19,10.73-15.23-24.2-25.76H39.78l-25.48,24.36,9.69,15.91,2.27-1.6v29.47Z"/>
    </g>
  </g>
  <g id="face">
    <g>
      <path class="cls-1" d="M136.4,72.03c0,11.89-4.36,22.75-11.57,31.08-.49,.57-.99,1.12-1.51,1.66-.25,.27-.51,.53-.78,.79-.26,.27-.53,.54-.81,.79-1.33,1.28-2.74,2.48-4.21,3.6-7.7,5.83-17.23,9.37-27.59,9.59h0c-.35,.01-.71,.02-1.06,.02-2.66,0-5.27-.22-7.81-.64-7.33-1.2-14.09-4.09-19.88-8.25-1.62-1.16-3.16-2.42-4.62-3.77-.2-.18-.39-.36-.58-.55-.27-.26-.55-.52-.81-.79-.26-.26-.52-.53-.77-.79-8.11-8.53-13.08-20.06-13.08-32.75,0-26.26,21.28-47.54,47.54-47.54s47.54,21.28,47.54,47.54Z"/>
      <path class="cls-6" d="M88.86,26.08c25.34,0,45.95,20.61,45.95,45.95,0,11.05-3.97,21.72-11.18,30.04-.48,.55-.97,1.09-1.46,1.62-.24,.25-.48,.5-.73,.75h-.01s-.01,.02-.01,.02c-.22,.23-.49,.49-.75,.74h-.01s-.01,.02-.01,.02c-1.26,1.22-2.63,2.38-4.07,3.47-7.73,5.85-16.95,9.06-26.65,9.27h-.04c-.34,.01-.68,.02-1.01,.02-2.55,0-5.09-.21-7.55-.62-6.88-1.13-13.52-3.89-19.21-7.97-1.54-1.1-3.04-2.33-4.47-3.64-.18-.16-.35-.33-.53-.5l-.02-.02-.02-.02c-.32-.3-.55-.53-.78-.76-.25-.25-.49-.5-.74-.76-8.16-8.58-12.65-19.82-12.65-31.66,0-25.34,20.61-45.95,45.95-45.95m0-1.58c-26.26,0-47.54,21.28-47.54,47.54,0,12.69,4.98,24.22,13.08,32.75,.25,.26,.5,.53,.77,.79,.26,.27,.54,.53,.81,.79,.19,.19,.38,.37,.58,.55,1.46,1.35,3,2.61,4.62,3.77,5.79,4.16,12.55,7.04,19.88,8.25,2.54,.43,5.15,.64,7.81,.64,.35,0,.71,0,1.06-.02h0c10.36-.22,19.89-3.76,27.59-9.59,1.47-1.11,2.88-2.31,4.21-3.6,.27-.25,.54-.52,.81-.79,.26-.26,.52-.52,.78-.79,.51-.54,1.01-1.1,1.51-1.66,7.22-8.33,11.57-19.19,11.57-31.08,0-26.26-21.28-47.54-47.54-47.54h0Z"/>
    </g>
    <g>
      <circle class="cls-6" cx="65.05" cy="88.45" r="2.07"/>
      <path class="cls-6" d="M65.05,86.91c.85,0,1.54,.69,1.54,1.54s-.69,1.54-1.54,1.54-1.54-.69-1.54-1.54,.69-1.54,1.54-1.54m0-.53c-1.14,0-2.07,.93-2.07,2.07s.93,2.07,2.07,2.07,2.07-.93,2.07-2.07-.93-2.07-2.07-2.07h0Z"/>
    </g>
    <g>
      <circle class="cls-6" cx="112.67" cy="88.45" r="2.07"/>
      <path class="cls-6" d="M112.67,86.91c.85,0,1.54,.69,1.54,1.54s-.69,1.54-1.54,1.54-1.54-.69-1.54-1.54,.69-1.54,1.54-1.54m0-.53c-1.14,0-2.07,.93-2.07,2.07s.93,2.07,2.07,2.07,2.07-.93,2.07-2.07-.93-2.07-2.07-2.07h0Z"/>
    </g>
    <g>
      <path class="cls-1" d="M90.05,104.56s4.03,1.97,7.31-1.17"/>
      <path class="cls-6" d="M92.99,106.5c-1.94,0-3.41-.7-3.52-.75l1.15-2.38c.13,.06,3.27,1.51,5.82-.94l1.83,1.91c-1.76,1.69-3.68,2.16-5.28,2.16Z"/>
    </g>
  </g>
  <g id="_4-4" data-name="4">
    <g>
      <path class="cls-6" d="M41.81,65.68s62.47-7.02,76.67-27.75c0,0,7.15-8.15-5.04-13.23-12.2-5.08-55.84-6.19-72.23,24.17,0,0-9.64,16.73,.6,16.81Z"/>
      <path class="cls-6" d="M68.39,30.32l-3.57-6.48s-.19-2.71,2.1-1.97,5.74,5.9,5.74,5.9l-4.27,2.55h0"/>
    </g>
    <g>
      <path class="cls-6" d="M90.09,97.08s3.82-3.38,9.82,0,6.02,1.6,8.66,0-7.09,6.76-12.78,3.38c0,0-3.16-.68-5.69-3.38Z"/>
      <path class="cls-6" d="M93.38,96.86s-3.82-3.38-9.82,0c-6,3.38-6.02,1.6-8.66,0s7.09,6.76,12.78,3.38c0,0,3.16-.68,5.69-3.38Z"/>
    </g>
  </g>
</svg>