<?xml version="1.0" encoding="UTF-8"?>
<svg id="Layer_1" data-name="Layer 1" xmlns="http://www.w3.org/2000/svg" xmlns:xlink="http://www.w3.org/1999/xlink" viewBox="0 0 28.31 30.22">
  <defs>
    <style>
      .cls-1 {
        fill: none;
      }

      .cls-2 {
        fill: #010101;
      }

      .cls-3 {
        fill: #ed2224;
      }

      .cls-4 {
        fill: #fff;
      }

      .cls-5 {
        fill: #3a576c;
      }

      .cls-6 {
        fill: url(#New_Pattern_2);
      }
    </style>
    <pattern id="New_Pattern_2" data-name="New Pattern 2" x="0" y="0" width="21.39" height="14.38" patternTransform="translate(-75.83 119.59)" patternUnits="userSpaceOnUse" viewBox="0 0 21.39 14.38">
      <g>
        <rect class="cls-1" width="21.39" height="14.38"/>
        <g>
          <g>
            <rect class="cls-4" x="0" y="0" width="21.39" height="1.2"/>
            <rect class="cls-3" x="0" y="1.2" width="21.39" height="1.2"/>
            <rect class="cls-4" x="0" y="2.4" width="21.39" height="1.2"/>
          </g>
          <g>
            <rect class="cls-3" x="0" y="3.6" width="21.39" height="1.2"/>
            <rect class="cls-4" x="0" y="4.79" width="21.39" height="1.2"/>
            <rect class="cls-3" x="0" y="5.99" width="21.39" height="1.2"/>
            <rect class="cls-4" x="0" y="7.19" width="21.39" height="1.2"/>
            <rect class="cls-3" x="0" y="8.39" width="21.39" height="1.2"/>
            <rect class="cls-4" x="0" y="9.59" width="21.39" height="1.2"/>
          </g>
          <g>
            <rect class="cls-3" x="0" y="10.79" width="21.39" height="1.2"/>
            <rect class="cls-4" x="0" y="11.99" width="21.39" height="1.2"/>
            <rect class="cls-3" x="0" y="13.18" width="21.39" height="1.2"/>
          </g>
        </g>
      </g>
    </pattern>
  </defs>
  <g>
    <path id="body" class="cls-4" d="M24.42,27.75v2.35h-3.18v-2.35H7.08v2.35H3.89v-10.3l-1.88,1.33L.17,18.53l3.72-2.63,4.06-2.6h12.48l3.98,2.63,3.72,2.63-1.84,2.6-1.88-1.33v7.93h0Z"/>
    <path class="cls-2" d="M24.55,30.22h-3.44v-2.35H7.2v2.35H3.77v-10.18l-1.79,1.26-1.98-2.81,3.82-2.7,4.1-2.63h12.56l4.01,2.65,3.82,2.7-1.98,2.8-1.79-1.26v10.16h0Zm-3.18-.25h2.93v-10.39l1.98,1.4,1.69-2.4-3.62-2.56-3.95-2.6H7.99l-4.03,2.58L.35,18.56l1.69,2.4,1.98-1.4v10.41h2.93v-2.35h14.41v2.35h0Z"/>
  </g>
  <g id="_4" data-name=" 4">
    <g>
      <polygon id="_4-2" data-name=" 4-2" class="cls-5" points="3.91 28.31 7.1 28.31 7.1 27.83 21.25 27.83 21.25 28.31 24.44 28.31 24.44 24.42 3.91 24.25 3.91 28.31"/>
      <path class="cls-2" d="M24.56,28.44h-3.44v-.49H7.22v.49H3.79v-4.32l20.78,.18v4.14h0Zm-3.18-.25h2.93v-3.64l-20.28-.17v3.82h2.93v-.49h14.41v.49h0Z"/>
    </g>
    <g>
      <polygon id="_4-3" data-name=" 4-3" class="cls-6" points="1.98 17.27 3.64 19.99 3.91 19.8 3.91 24.36 24.44 24.52 24.44 19.82 24.84 20.1 26.67 17.5 22.72 13.3 6.13 13.3 1.98 17.27"/>
      <path class="cls-2" d="M24.57,24.65h-.13l-20.65-.17v-4.44l-.18,.13-1.78-2.93,4.26-4.07H22.78l4.05,4.31-1.97,2.79-.3-.21v4.59h0Zm-20.53-.42l20.28,.16v-4.82l.49,.35,1.7-2.42-3.84-4.09H6.18l-4.04,3.86,1.54,2.52,.36-.25s0,4.67,0,4.67Z"/>
    </g>
  </g>
  <g id="face">
    <g>
      <path class="cls-4" d="M21.51,7.98c0,1.89-.69,3.61-1.84,4.93-.08,.09-.16,.18-.24,.26-.04,.04-.08,.08-.12,.13-.04,.04-.08,.09-.13,.13-.21,.2-.43,.39-.67,.57-1.22,.92-2.73,1.49-4.38,1.52h0c-.06,0-.11,0-.17,0-.42,0-.84-.03-1.24-.1-1.16-.19-2.24-.65-3.15-1.31-.26-.18-.5-.38-.73-.6-.03-.03-.06-.06-.09-.09-.04-.04-.09-.08-.13-.13-.04-.04-.08-.08-.12-.13-1.29-1.35-2.07-3.18-2.07-5.19C6.43,3.81,9.8,.43,13.97,.43s7.54,3.38,7.54,7.54h0Z"/>
      <path class="cls-2" d="M13.97,.69c4.02,0,7.29,3.27,7.29,7.29,0,1.75-.63,3.45-1.77,4.77-.08,.09-.15,.17-.23,.26-.04,.04-.08,.08-.12,.12h0s-.08,.08-.12,.12h0c-.2,.2-.42,.38-.65,.55-1.23,.93-2.69,1.44-4.23,1.47h0c-.05,0-.11,0-.16,0-.4,0-.81-.03-1.2-.1-1.09-.18-2.14-.62-3.05-1.26-.24-.17-.48-.37-.71-.58-.03-.03-.06-.05-.08-.08h0s0,0,0,0c-.05-.05-.09-.08-.12-.12-.04-.04-.08-.08-.12-.12-1.29-1.36-2.01-3.14-2.01-5.02C6.68,3.96,9.95,.69,13.97,.69m0-.25C9.8,.44,6.43,3.81,6.43,7.98c0,2.01,.79,3.84,2.07,5.19,.04,.04,.08,.08,.12,.13,.04,.04,.09,.08,.13,.13,.03,.03,.06,.06,.09,.09,.23,.21,.48,.41,.73,.6,.92,.66,1.99,1.12,3.15,1.31,.4,.07,.82,.1,1.24,.1,.06,0,.11,0,.17,0h0c1.64-.03,3.16-.6,4.38-1.52,.23-.18,.46-.37,.67-.57,.04-.04,.09-.08,.13-.13,.04-.04,.08-.08,.12-.13,.08-.09,.16-.17,.24-.26,1.15-1.32,1.84-3.04,1.84-4.93C21.51,3.81,18.13,.44,13.97,.44h0Z"/>
    </g>
    <g>
      <circle class="cls-2" cx="10.19" cy="10.58" r=".33"/>
      <path class="cls-2" d="M10.19,10.34c.13,0,.24,.11,.24,.24s-.11,.24-.24,.24-.24-.11-.24-.24,.11-.24,.24-.24m0-.08c-.18,0-.33,.15-.33,.33s.15,.33,.33,.33,.33-.15,.33-.33-.15-.33-.33-.33h0Z"/>
    </g>
    <g>
      <circle class="cls-2" cx="17.75" cy="10.58" r=".33"/>
      <path class="cls-2" d="M17.75,10.34c.13,0,.24,.11,.24,.24s-.11,.24-.24,.24-.24-.11-.24-.24,.11-.24,.24-.24m0-.08c-.18,0-.33,.15-.33,.33s.15,.33,.33,.33,.33-.15,.33-.33-.15-.33-.33-.33h0Z"/>
    </g>
    <g>
      <path class="cls-4" d="M14.16,13.14s.64,.31,1.16-.19"/>
      <path class="cls-2" d="M14.62,13.44c-.31,0-.54-.11-.56-.12l.18-.38s.52,.24,.92-.15l.29,.3c-.28,.27-.58,.34-.84,.34Z"/>
    </g>
  </g>
  <g id="_4-4" data-name=" 4-4">
    <g>
      <path class="cls-2" d="M6.51,6.97s9.91-1.11,12.16-4.4c0,0,1.13-1.29-.8-2.1-1.94-.81-8.86-.98-11.46,3.83,0,0-1.53,2.65,.1,2.67h0Z"/>
      <path class="cls-2" d="M10.72,1.36l-.57-1.03s-.03-.43,.33-.31,.91,.94,.91,.94l-.68,.4h0"/>
    </g>
    <g>
      <path class="cls-2" d="M14.16,11.95s.61-.54,1.56,0,.95,.25,1.37,0-1.12,1.07-2.03,.54c0,0-.5-.11-.9-.54h0Z"/>
      <path class="cls-2" d="M14.69,11.92s-.61-.54-1.56,0-.95,.25-1.37,0,1.12,1.07,2.03,.54c0,0,.5-.11,.9-.54h0Z"/>
    </g>
  </g>
</svg>